<svg width="181" height="36" viewBox="0 0 181 36" fill="none" xmlns="http://www.w3.org/2000/svg">
<path d="M53.76 29.75V5.526H58.56V29.75H53.76ZM70.7445 30.134C69.0165 30.134 67.4378 29.7393 66.0085 28.95C64.6005 28.1607 63.4698 27.0833 62.6165 25.718C61.7845 24.3313 61.3685 22.7633 61.3685 21.014C61.3685 19.2433 61.7845 17.6753 62.6165 16.31C63.4698 14.9447 64.6005 13.8673 66.0085 13.078C67.4378 12.2887 69.0165 11.894 70.7445 11.894C72.4725 11.894 74.0405 12.2887 75.4485 13.078C76.8565 13.8673 77.9765 14.9447 78.8085 16.31C79.6618 17.6753 80.0885 19.2433 80.0885 21.014C80.0885 22.7633 79.6618 24.3313 78.8085 25.718C77.9765 27.0833 76.8565 28.1607 75.4485 28.95C74.0405 29.7393 72.4725 30.134 70.7445 30.134ZM70.7445 25.814C71.6192 25.814 72.3765 25.6113 73.0165 25.206C73.6778 24.8007 74.1898 24.2353 74.5525 23.51C74.9365 22.7847 75.1285 21.9527 75.1285 21.014C75.1285 20.0753 74.9365 19.254 74.5525 18.55C74.1898 17.8247 73.6778 17.2593 73.0165 16.854C72.3765 16.4273 71.6192 16.214 70.7445 16.214C69.8698 16.214 69.1018 16.4273 68.4405 16.854C67.7792 17.2593 67.2565 17.8247 66.8725 18.55C66.5098 19.254 66.3285 20.0753 66.3285 21.014C66.3285 21.9527 66.5098 22.7847 66.8725 23.51C67.2565 24.2353 67.7792 24.8007 68.4405 25.206C69.1018 25.6113 69.8698 25.814 70.7445 25.814ZM88.3243 30.134C87.0656 30.134 85.9776 29.9313 85.0603 29.526C84.1429 29.1207 83.4389 28.5447 82.9483 27.798C82.4576 27.03 82.2122 26.1233 82.2122 25.078C82.2122 24.0967 82.4363 23.2327 82.8843 22.486C83.3323 21.718 84.0149 21.078 84.9323 20.566C85.8709 20.054 87.0336 19.6913 88.4203 19.478L93.7643 18.614V22.134L89.2843 22.934C88.6016 23.062 88.0789 23.286 87.7163 23.606C87.3536 23.9047 87.1723 24.342 87.1723 24.918C87.1723 25.4513 87.3749 25.8673 87.7803 26.166C88.1856 26.4647 88.6869 26.614 89.2843 26.614C90.0736 26.614 90.7669 26.4433 91.3643 26.102C91.9616 25.7607 92.4203 25.302 92.7403 24.726C93.0816 24.1287 93.2523 23.478 93.2523 22.774V18.23C93.2523 17.5687 92.9856 17.014 92.4523 16.566C91.9403 16.118 91.2363 15.894 90.3403 15.894C89.4869 15.894 88.7296 16.1287 88.0683 16.598C87.4283 17.0673 86.9589 17.686 86.6603 18.454L82.8203 16.63C83.1616 15.6487 83.7056 14.806 84.4523 14.102C85.1989 13.398 86.0949 12.854 87.1403 12.47C88.1856 12.086 89.3269 11.894 90.5642 11.894C92.0363 11.894 93.3376 12.1607 94.4683 12.694C95.5989 13.2273 96.4736 13.974 97.0923 14.934C97.7323 15.8727 98.0522 16.9713 98.0522 18.23V29.75H93.5723V26.934L94.6603 26.742C94.1483 27.51 93.5829 28.15 92.9643 28.662C92.3456 29.1527 91.6523 29.5153 90.8843 29.75C90.1163 30.006 89.2629 30.134 88.3243 30.134ZM101.573 29.75V12.278H106.053V15.734L105.797 14.966C106.202 13.9207 106.853 13.1527 107.749 12.662C108.666 12.15 109.733 11.894 110.949 11.894C112.271 11.894 113.423 12.1713 114.405 12.726C115.407 13.2807 116.186 14.0593 116.741 15.062C117.295 16.0433 117.573 17.1953 117.573 18.518V29.75H112.773V19.542C112.773 18.8593 112.634 18.2727 112.357 17.782C112.101 17.2913 111.727 16.9073 111.237 16.63C110.767 16.3527 110.213 16.214 109.573 16.214C108.954 16.214 108.399 16.3527 107.909 16.63C107.418 16.9073 107.034 17.2913 106.757 17.782C106.501 18.2727 106.373 18.8593 106.373 19.542V29.75H101.573ZM127.577 30.134C125.657 30.134 123.982 29.686 122.553 28.79C121.145 27.8727 120.185 26.646 119.673 25.11L123.193 23.446C123.641 24.3847 124.249 25.1207 125.017 25.654C125.785 26.1873 126.638 26.454 127.577 26.454C128.259 26.454 128.782 26.3153 129.145 26.038C129.507 25.7607 129.689 25.3767 129.689 24.886C129.689 24.63 129.625 24.4167 129.497 24.246C129.369 24.054 129.177 23.8833 128.921 23.734C128.665 23.5847 128.345 23.4567 127.961 23.35L124.985 22.518C123.555 22.1127 122.457 21.462 121.689 20.566C120.921 19.6487 120.537 18.5713 120.537 17.334C120.537 16.246 120.814 15.2967 121.369 14.486C121.923 13.6753 122.702 13.046 123.705 12.598C124.707 12.1287 125.859 11.894 127.161 11.894C128.867 11.894 130.361 12.2993 131.641 13.11C132.942 13.8993 133.859 15.0193 134.393 16.47L130.841 18.134C130.585 17.4087 130.115 16.8327 129.433 16.406C128.771 15.958 128.014 15.734 127.161 15.734C126.542 15.734 126.051 15.862 125.689 16.118C125.347 16.374 125.177 16.726 125.177 17.174C125.177 17.4087 125.241 17.622 125.369 17.814C125.497 18.006 125.699 18.1767 125.977 18.326C126.275 18.4753 126.638 18.614 127.065 18.742L129.849 19.574C131.299 20.0007 132.409 20.6513 133.177 21.526C133.945 22.3793 134.329 23.4353 134.329 24.694C134.329 25.782 134.041 26.7313 133.465 27.542C132.91 28.3527 132.131 28.9927 131.129 29.462C130.126 29.91 128.942 30.134 127.577 30.134ZM145.614 29.942C143.502 29.942 141.859 29.3767 140.686 28.246C139.534 27.094 138.958 25.494 138.958 23.446V16.438H136.014V12.278H136.174C137.07 12.278 137.752 12.054 138.222 11.606C138.712 11.158 138.958 10.486 138.958 9.59V8.31H143.758V12.278H147.854V16.438H143.758V23.126C143.758 23.7233 143.864 24.2247 144.078 24.63C144.291 25.014 144.622 25.302 145.07 25.494C145.518 25.686 146.072 25.782 146.734 25.782C146.883 25.782 147.054 25.7713 147.246 25.75C147.438 25.7287 147.64 25.7073 147.854 25.686V29.75C147.534 29.7927 147.171 29.8353 146.766 29.878C146.36 29.9207 145.976 29.942 145.614 29.942ZM159.082 30.134C157.226 30.134 155.616 29.7287 154.25 28.918C152.885 28.086 151.829 26.9767 151.082 25.59C150.336 24.2033 149.962 22.6673 149.962 20.982C149.962 19.2327 150.346 17.6753 151.114 16.31C151.904 14.9447 152.96 13.8673 154.282 13.078C155.605 12.2887 157.098 11.894 158.762 11.894C160.149 11.894 161.376 12.118 162.442 12.566C163.509 12.9927 164.405 13.6007 165.13 14.39C165.877 15.1793 166.442 16.0967 166.826 17.142C167.21 18.166 167.402 19.286 167.402 20.502C167.402 20.8433 167.381 21.1847 167.338 21.526C167.317 21.846 167.264 22.1233 167.178 22.358H154.09V18.838H164.458L162.186 20.502C162.4 19.5847 162.389 18.774 162.154 18.07C161.92 17.3447 161.504 16.7793 160.906 16.374C160.33 15.9473 159.616 15.734 158.762 15.734C157.93 15.734 157.216 15.9367 156.618 16.342C156.021 16.7473 155.573 17.3447 155.274 18.134C154.976 18.9233 154.858 19.8833 154.922 21.014C154.837 21.9953 154.954 22.8593 155.274 23.606C155.594 24.3527 156.085 24.9393 156.746 25.366C157.408 25.7713 158.208 25.974 159.146 25.974C160 25.974 160.725 25.8033 161.322 25.462C161.941 25.1207 162.421 24.6513 162.762 24.054L166.602 25.878C166.261 26.7313 165.717 27.478 164.97 28.118C164.245 28.758 163.381 29.2593 162.378 29.622C161.376 29.9633 160.277 30.134 159.082 30.134ZM170.229 29.75V12.278H174.709V16.47L174.389 15.862C174.773 14.39 175.402 13.398 176.277 12.886C177.173 12.3527 178.229 12.086 179.445 12.086H180.469V16.246H178.965C177.791 16.246 176.842 16.6087 176.117 17.334C175.391 18.038 175.029 19.0407 175.029 20.342V29.75H170.229Z" fill="white"/>
<path d="M0 2C0 0.895431 0.895431 0 2 0H8V8H0V2Z" fill="#4CDFAA"/>
<rect y="14" width="8" height="8" fill="#4CDFAA"/>
<path d="M0 28H8V36H2C0.895431 36 0 35.1046 0 34V28Z" fill="#4CDFAA"/>
<rect x="14" width="8" height="8" fill="white"/>
<rect x="14" y="14" width="8" height="8" fill="white"/>
<rect x="14" y="28" width="8" height="8" fill="#4CDFAA"/>
<rect x="28" width="8" height="8" fill="white"/>
<rect x="28" y="14" width="8" height="8" fill="white"/>
<path d="M28 28H36V34C36 35.1046 35.1046 36 34 36H28V28Z" fill="#4CDFAA"/>
</svg>
